# xmcd CD database file
#
# Track frame offsets:
#	150
#	19897
#	33460
#	44982
#	58057
#	73210
#	97590
#	116562
#	127945
#	149475
#	166362
#	182500
#
# Disc length: 2591 seconds
#
# Revision: 0
# Processed by: cddbd v1.5.2PL0 Copyright (c) Steve Scherf et al.
# Submitted via: CDex 1.70beta2
#
DISCID=ac0a1d0c
DTITLE=Julio Beque Y Su Cumbia Son - Salsacumbiando
DYEAR=1900
DGENRE=Salsa
TTITLE0=Tambores Bata
TTITLE1=La Cumbiela
TTITLE2=Ay Me Duele
TTITLE3=Hara Kiri
TTITLE4=El Camion
TTITLE5=Juan Pampiro
TTITLE6=Los Chucheros De Ayer
TTITLE7=Oyeme Puchucha
TTITLE8=Ayer No Es Hoy
TTITLE9=Salsacumbiando
TTITLE10=La Clave Majadera
TTITLE11=Para La Cumbia
EXTD=
EXTT0=
EXTT1=
EXTT2=
EXTT3=
EXTT4=
EXTT5=
EXTT6=
EXTT7=
EXTT8=
EXTT9=
EXTT10=
EXTT11=
PLAYORDER=
